<svg version="1.1" viewBox="0.0 0.0 398.7034120734908 392.18372703412075" fill="none" stroke="none" stroke-linecap="square" stroke-miterlimit="10" xmlns:xlink="http://www.w3.org/1999/xlink" xmlns="http://www.w3.org/2000/svg"><clipPath id="p.0"><path d="m0 0l398.7034 0l0 392.18372l-398.7034 0l0 -392.18372z" clip-rule="nonzero"/></clipPath><g clip-path="url(#p.0)"><path fill="#000000" fill-opacity="0.0" d="m0 0l398.7034 0l0 392.18372l-398.7034 0z" fill-rule="evenodd"/><path fill="#ff0000" d="m0 4.1811023l393.88977 0l0 383.3386l-393.88977 0z" fill-rule="evenodd"/><path stroke="#000000" stroke-width="12.0" stroke-linejoin="round" stroke-linecap="butt" d="m0 4.1811023l393.88977 0l0 383.3386l-393.88977 0z" fill-rule="evenodd"/><path fill="#000000" fill-opacity="0.0" d="m17.401575 38.257217l359.0866 0l0 310.5197l-359.0866 0z" fill-rule="evenodd"/><path fill="#000000" d="m122.32302 297.3952q-36.125 0 -51.25 -19.453125q-15.109375 -19.46875 -15.109375 -56.14064l0 -81.203125q0 -37.515625 14.984375 -56.6875q14.984375 -19.1875 51.375 -19.1875q34.718758 0 49.140633 16.9375q14.421875 16.9375 14.421875 48.578125l0 19.03125l-44.796875 0l0 -21.0q0 -10.078125 -0.984375 -16.234375q-0.984375 -6.15625 -5.046875 -10.21875q-4.046875 -4.0625 -12.453133 -4.0625q-12.59375 0 -16.234375 8.125q-3.640625 8.125 -3.640625 23.796875l0 103.046875q0 15.953125 4.1875 23.79689q4.203125 7.84375 15.6875 7.84375q11.765633 0 15.125008 -7.984375q3.359375 -7.9843903 3.359375 -23.656265l0 -22.125l44.796875 0l0 18.765625q0 32.468765 -14.28125 50.250015q-14.28125 17.78125 -49.281258 17.78125z" fill-rule="nonzero"/><path fill="#ffffff" d="m214.16301 67.52019l45.92186 0l0 95.75l41.15625 -95.75l44.796875 0l-42.546875 101.921875l45.90625 124.875015l-46.75 0l-35.0 -101.35939l-7.5625 12.3125l0 89.04689l-45.92186 0l0 -226.79689z" fill-rule="nonzero"/></g></svg>